<svg width="32" height="32" viewBox="0 0 32 32" fill="none" xmlns="http://www.w3.org/2000/svg">
<g clip-path="url(#clip0_45_2)">
<circle cx="16" cy="16" r="16" fill="white"/>
<path d="M26.2542 7.28035C24.064 5.22658 20.2268 4 16 4C11.7732 4 7.93586 5.22677 5.74582 7.28035C3.7181 9.17758 3.44434 11.4382 4.98944 13.4811L8.54352 18.1726L8.55744 21.0395C8.55744 21.1931 8.7662 21.319 9.02157 21.319C9.27659 21.319 9.48569 21.1933 9.48569 21.0395L9.47178 18.0496L5.83425 13.2491C4.4238 11.3826 4.67427 9.31756 6.52558 7.58526C8.54843 5.69072 12.0889 4.5591 16.0001 4.5591C19.9113 4.5591 23.452 5.68802 25.4746 7.58257C27.3259 9.31786 27.5813 11.3828 26.166 13.2464L22.5284 18.0469L22.5145 19.6257C22.5145 19.7793 22.7188 19.9052 22.9787 19.9052C23.2337 19.9052 23.4428 19.7822 23.4428 19.6257L23.4567 18.1672L27.0108 13.4757C28.5556 11.4385 28.2816 9.17781 26.2542 7.28035Z" fill="#1400FF"/>
<path d="M22.807 21.6317L8.96598 23.0149C8.71546 23.04 8.5436 23.1851 8.58535 23.3363C8.62257 23.4731 8.81742 23.5709 9.04461 23.5709C9.06791 23.5709 9.09574 23.5709 9.11873 23.5681L22.9597 22.1821C23.2103 22.157 23.3821 22.0118 23.3404 21.8607C23.2986 21.7099 23.0617 21.6066 22.8067 21.6317L22.807 21.6317Z" fill="#1400FF"/>
<path d="M22.807 23.7275L8.96598 25.1106C8.71546 25.1357 8.5436 25.281 8.58535 25.4321C8.62257 25.5689 8.81742 25.6667 9.04461 25.6667C9.06791 25.6667 9.09574 25.6667 9.11873 25.6641L22.9597 24.278C23.2103 24.2529 23.3821 24.1076 23.3404 23.9566C23.2986 23.8058 23.0617 23.7024 22.8067 23.7277L22.807 23.7275Z" fill="#1400FF"/>
<path d="M18.1628 25.8231C17.9122 25.851 17.7452 25.9991 17.7961 26.1501C17.81 26.2003 17.8194 26.259 17.8194 26.3232C17.8194 26.6223 17.6245 26.9018 17.2811 27.1141C16.9283 27.3235 16.46 27.4409 15.9635 27.4409C15.0496 27.4409 14.2793 27.0469 14.1356 26.5077C14.0938 26.3568 13.8573 26.2533 13.6019 26.2758C13.3514 26.3009 13.1795 26.4434 13.2167 26.5972C13.4394 27.4103 14.59 27.9999 15.9636 27.9999C16.706 27.9999 17.4019 27.8266 17.9356 27.5081C18.4599 27.1896 18.7477 26.7676 18.7477 26.3234C18.7477 26.223 18.7338 26.1307 18.7059 26.0439C18.6593 25.8959 18.4178 25.7952 18.1628 25.8231Z" fill="#1400FF"/>
<path d="M13.6894 21.3189C13.9445 21.3189 14.1536 21.1932 14.1536 21.0394L14.1532 15.4314L10.2927 13.1065C10.3901 12.9808 10.4458 12.8438 10.4458 12.6985C10.4458 12.1592 9.71723 11.7205 8.82162 11.7205C7.92604 11.7205 7.19751 12.1592 7.19751 12.6985C7.19751 13.2379 7.92604 13.6766 8.82162 13.6766C9.13719 13.6766 9.42946 13.6207 9.67544 13.5258L13.225 15.6634V21.0393C13.2253 21.1931 13.434 21.3189 13.6894 21.3189ZM8.1261 12.6986C8.1261 12.4667 8.43714 12.2796 8.82196 12.2796C9.20712 12.2796 9.51781 12.4669 9.51781 12.6986C9.51781 12.9306 9.20678 13.1177 8.82196 13.1177C8.43683 13.1177 8.1261 12.9276 8.1261 12.6986Z" fill="#1400FF"/>
<path d="M15.5359 13.3384V19.0551C15.5359 19.2087 15.7446 19.3346 16 19.3346C16.255 19.3346 16.4641 19.2089 16.4641 19.0551V13.5674L20.0136 11.4298V9.27277C20.6817 9.1527 21.1736 8.78099 21.1736 8.33954C21.1736 7.80019 20.4451 7.36145 19.5495 7.36145C18.6539 7.36145 17.9254 7.80019 17.9254 8.33954C17.9254 8.78101 18.4173 9.14976 19.0853 9.27277V11.1981L15.5359 13.3384ZM18.8537 8.34218C18.8537 8.11023 19.1647 7.92312 19.5495 7.92312C19.9347 7.92312 20.2454 8.11043 20.2454 8.34218C20.2454 8.57411 19.9343 8.76124 19.5495 8.76124C19.1644 8.76124 18.8537 8.57411 18.8537 8.34218Z" fill="#1400FF"/>
<path d="M17.8183 19.9606C17.8183 20.1141 18.0271 20.2401 18.2824 20.2401C18.5375 20.2401 18.7466 20.1144 18.7466 19.9606L18.7462 15.554L22.3281 13.397C22.5414 13.4613 22.7828 13.4975 23.0333 13.4975C23.9289 13.4975 24.6574 13.0588 24.6574 12.5195C24.6574 11.9801 23.9289 11.5414 23.0333 11.5414C22.1377 11.5414 21.4092 11.9801 21.4092 12.5195C21.4092 12.7011 21.4972 12.8715 21.6413 13.0169L17.8179 15.3194L17.8183 19.9606ZM23.0333 12.1032C23.4185 12.1032 23.7292 12.2905 23.7292 12.5223C23.7292 12.7542 23.4182 12.9414 23.0333 12.9414C22.6482 12.9414 22.3375 12.754 22.3375 12.5223C22.3375 12.2905 22.653 12.1032 23.0333 12.1032Z" fill="#1400FF"/>
<path d="M11.8379 7.58222C11.8379 7.04286 11.1093 6.60413 10.2137 6.60413C9.31816 6.60413 8.5896 7.04286 8.5896 7.58222C8.5896 8.02369 9.08156 8.39244 9.74958 8.51545V9.68627L13.225 11.7792V14.0509C13.225 14.2045 13.4337 14.3304 13.6891 14.3304C13.9441 14.3304 14.1532 14.2047 14.1532 14.0509V11.5472L10.6778 9.45431V8.51545C11.3459 8.39245 11.8379 8.02367 11.8379 7.58222ZM9.51792 7.58222C9.51792 7.35027 9.82895 7.16316 10.2138 7.16316C10.5989 7.16316 10.9096 7.35047 10.9096 7.58222C10.9096 7.81415 10.5986 8.00127 10.2138 8.00127C9.82864 8.00127 9.51792 7.81415 9.51792 7.58222Z" fill="#1400FF"/>
</g>
<defs>
<clipPath id="clip0_45_2">
<rect width="32" height="32" fill="white"/>
</clipPath>
</defs>
</svg>
