<svg width="161" height="40" viewBox="0 0 161 40" fill="none" xmlns="http://www.w3.org/2000/svg">
<path d="M40.1756 5.73602L34.6076 39H24.3836L20.2556 13.608L15.8876 39H5.90364L0.431641 5.73602H8.30364L11.6156 33.048L16.2236 5.73602H24.4796L28.7996 33.048L32.6876 5.73602H40.1756Z" fill="#141414"/>
<path d="M51.2003 13.512V39H43.6163V13.512H51.2003ZM47.3603 0.0720215C48.6723 0.0720215 49.7443 0.488022 50.5763 1.32002C51.4403 2.12002 51.8723 3.14402 51.8723 4.39202C51.8723 5.64002 51.4403 6.68002 50.5763 7.51202C49.7443 8.31202 48.6723 8.71202 47.3603 8.71202C46.0483 8.71202 44.9763 8.31202 44.1443 7.51202C43.3123 6.68002 42.8963 5.64002 42.8963 4.39202C42.8963 3.14402 43.3123 2.12002 44.1443 1.32002C44.9763 0.488022 46.0483 0.0720215 47.3603 0.0720215Z" fill="#141414"/>
<path d="M63.9311 39.816C61.7231 39.816 59.9951 39.192 58.7471 37.944C57.5311 36.664 56.9231 34.856 56.9231 32.52V3.38402L64.5071 2.56802V32.232C64.5071 33.288 64.9391 33.816 65.8031 33.816C66.2511 33.816 66.6671 33.736 67.0511 33.576L68.5391 38.952C67.1631 39.528 65.6271 39.816 63.9311 39.816Z" fill="#141414"/>
<path d="M78.1811 39.816C75.9731 39.816 74.2451 39.192 72.9971 37.944C71.7811 36.664 71.1731 34.856 71.1731 32.52V3.38402L78.7571 2.56802V32.232C78.7571 33.288 79.1891 33.816 80.0531 33.816C80.5011 33.816 80.9171 33.736 81.3011 33.576L82.7891 38.952C81.4131 39.528 79.8771 39.816 78.1811 39.816Z" fill="#141414"/>
<path d="M93.2471 13.512V39H85.6631V13.512H93.2471ZM89.4071 0.0720215C90.7191 0.0720215 91.7911 0.488022 92.6231 1.32002C93.4871 2.12002 93.9191 3.14402 93.9191 4.39202C93.9191 5.64002 93.4871 6.68002 92.6231 7.51202C91.7911 8.31202 90.7191 8.71202 89.4071 8.71202C88.0951 8.71202 87.0231 8.31202 86.1911 7.51202C85.3591 6.68002 84.9431 5.64002 84.9431 4.39202C84.9431 3.14402 85.3591 2.12002 86.1911 1.32002C87.0231 0.488022 88.0951 0.0720215 89.4071 0.0720215Z" fill="#141414"/>
<path d="M119.466 31.608C119.466 32.568 119.594 33.272 119.85 33.72C120.138 34.168 120.586 34.504 121.194 34.728L119.61 39.672C118.042 39.544 116.762 39.208 115.77 38.664C114.778 38.088 114.01 37.192 113.466 35.976C111.802 38.536 109.242 39.816 105.786 39.816C103.258 39.816 101.242 39.08 99.738 37.608C98.234 36.136 97.482 34.216 97.482 31.848C97.482 29.064 98.506 26.936 100.554 25.464C102.602 23.992 105.562 23.256 109.434 23.256H112.026V22.152C112.026 20.648 111.706 19.624 111.066 19.08C110.426 18.504 109.306 18.216 107.706 18.216C106.874 18.216 105.866 18.344 104.682 18.6C103.498 18.824 102.282 19.144 101.034 19.56L99.306 14.568C100.906 13.96 102.538 13.496 104.202 13.176C105.898 12.856 107.466 12.696 108.906 12.696C112.554 12.696 115.226 13.448 116.922 14.952C118.618 16.456 119.466 18.712 119.466 21.72V31.608ZM107.994 34.392C109.722 34.392 111.066 33.576 112.026 31.944V27.432H110.154C108.426 27.432 107.13 27.736 106.266 28.344C105.434 28.952 105.018 29.896 105.018 31.176C105.018 32.2 105.274 33 105.786 33.576C106.33 34.12 107.066 34.392 107.994 34.392Z" fill="#141414"/>
<path d="M153.683 12.696C155.699 12.696 157.315 13.384 158.531 14.76C159.747 16.104 160.355 17.976 160.355 20.376V39H152.771V21.672C152.771 19.4 152.051 18.264 150.611 18.264C149.811 18.264 149.107 18.536 148.499 19.08C147.891 19.624 147.299 20.456 146.723 21.576V39H139.139V21.672C139.139 19.4 138.419 18.264 136.979 18.264C136.211 18.264 135.507 18.552 134.867 19.128C134.259 19.672 133.667 20.488 133.091 21.576V39H125.507V13.512H132.131L132.659 16.488C133.651 15.208 134.739 14.264 135.923 13.656C137.139 13.016 138.515 12.696 140.051 12.696C141.491 12.696 142.723 13.048 143.747 13.752C144.803 14.456 145.571 15.448 146.051 16.728C147.075 15.352 148.195 14.344 149.411 13.704C150.659 13.032 152.083 12.696 153.683 12.696Z" fill="#141414"/>
</svg>
