<svg width="32" height="32" viewBox="0 0 32 32" fill="none" xmlns="http://www.w3.org/2000/svg">
<path d="M12.4667 22.5067C12.4667 22.6 12.3734 22.6667 12.24 22.6667C12.1067 22.6667 12 22.6667 12 22.5067C12 22.3467 12.1067 22.3467 12.2267 22.3467C12.3467 22.3467 12.4667 22.4133 12.4667 22.5067ZM11.1334 22.3067C11.1334 22.4 11.1334 22.5067 11.32 22.5333C11.3678 22.5563 11.4227 22.5593 11.4727 22.5419C11.5227 22.5244 11.5637 22.4877 11.5867 22.44C11.5867 22.3467 11.5867 22.2533 11.4 22.2133C11.2134 22.1733 11.16 22.2133 11.1334 22.3067ZM13.0267 22.24C12.9067 22.24 12.8267 22.3467 12.84 22.4533C12.8534 22.56 12.96 22.6 13.0934 22.5733C13.2267 22.5467 13.2934 22.4533 13.28 22.36C13.2667 22.2667 13.16 22.2267 13.0267 22.24ZM15.8667 5.33336C14.4605 5.32012 13.0662 5.5911 11.7673 6.13005C10.4684 6.669 9.29184 7.4648 8.3081 8.46969C7.32438 9.47458 6.55381 10.6679 6.04264 11.9779C5.53146 13.288 5.29021 14.6877 5.33338 16.0933C5.29616 18.3959 5.97902 20.6525 7.28658 22.5481C8.59414 24.4437 10.4611 25.8836 12.6267 26.6667C13.1734 26.76 13.3733 26.4133 13.3733 26.1333C13.3733 25.8533 13.3733 24.3467 13.3733 23.4667C13.3733 23.4667 10.36 24.1333 9.72005 22.1333C9.72005 22.1333 9.24005 20.8 8.53338 20.52C8.53338 20.52 7.54671 19.8267 8.60005 19.84C8.94503 19.8865 9.27432 20.0133 9.56145 20.2101C9.84858 20.4069 10.0856 20.6684 10.2534 20.9733C10.3929 21.2468 10.5868 21.4889 10.8232 21.6847C11.0596 21.8805 11.3336 22.026 11.6282 22.1121C11.9229 22.1983 12.2321 22.2233 12.5367 22.1857C12.8414 22.1481 13.1352 22.0485 13.4 21.8933C13.4505 21.3367 13.6905 20.8143 14.08 20.4133C11.68 20.1333 9.25338 19.7867 9.25338 15.5333C9.22789 15.0528 9.30509 14.5724 9.47981 14.1241C9.65454 13.6759 9.92279 13.2699 10.2667 12.9334C9.94223 11.9573 9.9801 10.8971 10.3734 9.94669C11.28 9.65336 13.3467 11.1334 13.3467 11.1334C15.1123 10.6354 16.9812 10.6354 18.7467 11.1334C18.7467 11.1334 20.8133 9.65336 21.72 9.94669C22.1219 10.8952 22.1597 11.9586 21.8267 12.9334C22.1828 13.2652 22.4652 13.6681 22.6559 14.116C22.8464 14.5639 22.9409 15.0467 22.9333 15.5333C22.9333 19.8 20.4 20.1333 18 20.4133C18.2412 20.6839 18.4248 21.0008 18.5395 21.3447C18.654 21.6885 18.6973 22.0521 18.6667 22.4133C18.6667 23.9067 18.6667 25.7467 18.6667 26.1067C18.6659 26.1967 18.6867 26.2856 18.7275 26.3659C18.7684 26.4461 18.8279 26.5155 18.9012 26.5677C18.9744 26.6201 19.0593 26.654 19.1484 26.6665C19.2376 26.6792 19.3285 26.67 19.4133 26.64C21.5751 25.8637 23.4381 24.428 24.7396 22.5356C26.0412 20.6432 26.7152 18.3896 26.6667 16.0933C26.6792 14.6735 26.4081 13.2654 25.8693 11.9516C25.3305 10.6379 24.5348 9.44492 23.5289 8.44273C22.5231 7.44054 21.3271 6.64928 20.0113 6.11534C18.6956 5.58141 17.2865 5.31556 15.8667 5.33336ZM9.52005 20.5467C9.52005 20.5467 9.52005 20.6933 9.52005 20.7733C9.53491 20.7883 9.55257 20.8001 9.57202 20.8081C9.59147 20.8163 9.61231 20.8204 9.63338 20.8204C9.65443 20.8204 9.67529 20.8163 9.69474 20.8081C9.71418 20.8001 9.73185 20.7883 9.74671 20.7733C9.74671 20.7733 9.74671 20.6267 9.74671 20.5333C9.74671 20.44 9.57338 20.4933 9.52005 20.5467ZM9.05338 20.1867C9.05338 20.1867 9.05338 20.32 9.14672 20.36C9.15796 20.374 9.17218 20.3852 9.18833 20.3929C9.20448 20.4005 9.22215 20.4047 9.24005 20.4047C9.25794 20.4047 9.27561 20.4005 9.29176 20.3929C9.30792 20.3852 9.32213 20.374 9.33338 20.36C9.33338 20.36 9.33338 20.2267 9.24005 20.1867C9.14671 20.1467 9.08005 20.1467 9.05338 20.1867ZM10.3867 21.76C10.3867 21.76 10.3867 21.9467 10.3867 22.04C10.3867 22.1333 10.6134 22.1467 10.6667 22.04C10.72 21.9333 10.6667 21.8533 10.6667 21.76C10.6667 21.6667 10.4934 21.6933 10.44 21.76H10.3867ZM9.89338 21.1067C9.89338 21.1067 9.89338 21.2667 9.89338 21.3733C9.89338 21.48 10.08 21.52 10.1467 21.48C10.1805 21.4412 10.1991 21.3915 10.1991 21.34C10.1991 21.2885 10.1805 21.2388 10.1467 21.2C10.08 21.0933 9.97338 21.0533 9.89338 21.1067Z" fill="white"/>
</svg>
