<svg width="32" height="32" viewBox="0 0 32 32" fill="none" xmlns="http://www.w3.org/2000/svg">
<path d="M24.45 24.45H20.894V18.88C20.894 17.552 20.87 15.842 19.044 15.842C17.192 15.842 16.908 17.29 16.908 18.782V24.45H13.352V12.996H16.766V14.562H16.814C17.51 13.374 18.806 12.662 20.182 12.712C23.786 12.712 24.452 15.082 24.452 18.168L24.45 24.448V24.45ZM9.34 11.43C8.79375 11.4274 8.27059 11.2094 7.88414 10.8233C7.49769 10.4372 7.27915 9.91428 7.276 9.36803C7.276 8.23603 8.208 7.30403 9.34 7.30403C10.472 7.30403 11.402 8.23603 11.404 9.36803C11.404 10.5 10.472 11.43 9.34 11.43ZM11.118 24.45H7.558V12.996H11.118V24.45ZM26.22 4.00003H5.77C5.3063 3.99734 4.86027 4.17775 4.52885 4.50206C4.19742 4.82638 4.00737 5.26838 4 5.73203V26.268C4.00737 26.7317 4.19742 27.1737 4.52885 27.498C4.86027 27.8223 5.3063 28.0027 5.77 28H26.222C26.6868 28.0038 27.1342 27.824 27.4672 27.4997C27.8001 27.1753 27.9916 26.7327 28 26.268V5.73003C27.9916 5.26568 27.8 4.82349 27.4669 4.49981C27.1339 4.17613 26.6864 3.9972 26.222 4.00203L26.22 4.00003Z" fill="white"/>
</svg>
